<?xml version="1.0" encoding="iso-8859-1"?>
<!-- Generator: Adobe Illustrator 19.0.0, SVG Export Plug-In . SVG Version: 6.00 Build 0)  -->
<svg version="1.1" id="Capa_1" xmlns="http://www.w3.org/2000/svg" xmlns:xlink="http://www.w3.org/1999/xlink" x="0px" y="0px"
	 viewBox="0 0 512 512" style="enable-background:new 0 0 512 512;" xml:space="preserve">
<g>
	<g>
		<g>
			<circle cx="53.333" cy="53.333" r="10.667"/>
			<circle cx="96" cy="53.333" r="10.667"/>
			<circle cx="138.667" cy="53.333" r="10.667"/>
			<path d="M469.333,304.228V42.667C469.333,19.135,450.198,0,426.667,0h-384C19.135,0,0,19.135,0,42.667v384
				c0,23.531,19.135,42.667,42.667,42.667h261.561C325.767,495.376,358.31,512,394.667,512C459.365,512,512,459.365,512,394.667
				C512,358.31,495.376,325.767,469.333,304.228z M21.333,42.667c0-11.76,9.573-21.333,21.333-21.333h384
				c11.76,0,21.333,9.573,21.333,21.333v42.667H21.333V42.667z M42.667,448c-11.76,0-21.333-9.573-21.333-21.333v-320H448v183.62
				c-16.023-8.22-34.121-12.953-53.333-12.953c-64.698,0-117.333,52.635-117.333,117.333c0,19.212,4.733,37.31,12.953,53.333H42.667
				z M394.667,490.667c-52.938,0-96-43.063-96-96s43.063-96,96-96s96,43.063,96,96S447.604,490.667,394.667,490.667z"/>
			<path d="M368.583,382.208c4.906-3.271,6.229-9.885,2.958-14.792c-3.281-4.917-9.875-6.229-14.792-2.958l-9.906,6.604
				c8.729-17.604,26.885-29.729,47.823-29.729c17.75,0,34.281,8.792,44.24,23.521c3.281,4.885,9.927,6.167,14.802,2.865
				c4.885-3.292,6.167-9.927,2.865-14.802C442.656,332.302,419.51,320,394.667,320C353.5,320,320,353.5,320,394.667
				c0,3.938,2.167,7.552,5.635,9.406c1.573,0.844,3.302,1.26,5.031,1.26c2.073,0,4.135-0.604,5.917-1.792L368.583,382.208z"/>
			<path d="M463.698,385.26c-3.469-1.854-7.688-1.656-10.948,0.531l-32,21.333c-4.906,3.271-6.229,9.885-2.958,14.792
				c3.25,4.896,9.875,6.198,14.792,2.958l9.906-6.604C433.76,435.875,415.604,448,394.667,448c-17.75,0-34.281-8.792-44.24-23.521
				c-3.281-4.885-9.927-6.167-14.802-2.865c-4.885,3.292-6.167,9.927-2.865,14.802c13.917,20.615,37.063,32.917,61.906,32.917
				c41.167,0,74.667-33.5,74.667-74.667C469.333,390.729,467.167,387.115,463.698,385.26z"/>
		</g>
	</g>
</g>
<g>
</g>
<g>
</g>
<g>
</g>
<g>
</g>
<g>
</g>
<g>
</g>
<g>
</g>
<g>
</g>
<g>
</g>
<g>
</g>
<g>
</g>
<g>
</g>
<g>
</g>
<g>
</g>
<g>
</g>
</svg>
