<svg id="Capa_1" enable-background="new 0 0 512 512" height="512" viewBox="0 0 512 512" width="512" xmlns="http://www.w3.org/2000/svg"><g><path d="m25.426 288.307c-6.724-6.723-10.426-15.662-10.426-25.17 0-9.507 3.702-18.443 10.426-25.163l63.929-63.929c2.058-2.057 2.739-5.119 1.749-7.855-2.53-6.991-3.812-14.328-3.812-21.808 0-35.41 28.809-64.219 64.219-64.219 11.051 0 21.963 2.869 31.556 8.297 2.069 1.171 4.572 1.292 6.744.324 42.064-18.726 90.315-18.726 132.379 0 2.173.968 4.674.847 6.744-.324 9.594-5.428 20.505-8.297 31.556-8.297 5.99 0 11.932.826 17.659 2.454 3.985 1.137 8.132-1.179 9.265-5.163 1.132-3.984-1.179-8.132-5.164-9.265-7.061-2.008-14.383-3.026-21.761-3.026-12.364 0-24.589 2.912-35.59 8.451-43.994-18.494-93.805-18.494-137.798 0-11.001-5.539-23.226-8.451-35.59-8.451-43.682 0-79.219 35.537-79.219 79.219 0 7.6 1.075 15.085 3.2 22.313l-60.671 60.672c-9.557 9.551-14.821 22.255-14.821 35.77s5.263 26.22 14.82 35.777l40.44 40.43c1.464 1.464 3.384 2.196 5.303 2.196 1.92 0 3.839-.732 5.304-2.197 2.929-2.929 2.928-7.678-.001-10.606z"/><path d="m497.181 227.368-60.673-60.673c2.125-7.228 3.2-14.713 3.2-22.313 0-24.358-10.962-47.003-30.075-62.13-3.248-2.57-7.964-2.021-10.535 1.227s-2.021 7.965 1.227 10.535c15.496 12.265 24.384 30.623 24.384 50.369 0 7.48-1.283 14.817-3.812 21.808-.99 2.736-.308 5.798 1.75 7.855l63.931 63.931c6.72 6.717 10.422 15.653 10.422 25.16 0 9.508-3.703 18.447-10.426 25.17l-91.239 91.23c-37.216 37.221-86.7 57.72-139.335 57.72s-102.118-20.499-139.336-57.72l-31.08-31.08c-2.929-2.929-7.678-2.929-10.606 0-2.929 2.929-2.929 7.678 0 10.606l31.079 31.08c40.05 40.055 93.3 62.114 149.942 62.114s109.893-22.059 149.942-62.113l91.239-91.23c9.557-9.556 14.819-22.262 14.819-35.777.001-13.515-5.263-26.219-14.818-35.769z"/><ellipse cx="141.68" cy="141.925" rx="22.811" ry="34.091"/><ellipse cx="370.32" cy="141.925" rx="22.811" ry="34.091"/><path d="m199.933 244.458c-15.307 0-27.76 12.453-27.76 27.76s12.453 27.76 27.76 27.76 27.76-12.453 27.76-27.76-12.453-27.76-27.76-27.76zm0 40.52c-7.036 0-12.76-5.724-12.76-12.76s5.724-12.76 12.76-12.76 12.76 5.724 12.76 12.76-5.724 12.76-12.76 12.76z"/><path d="m312.067 244.458c-15.307 0-27.76 12.453-27.76 27.76s12.453 27.76 27.76 27.76 27.76-12.453 27.76-27.76-12.453-27.76-27.76-27.76zm0 40.52c-7.036 0-12.76-5.724-12.76-12.76s5.724-12.76 12.76-12.76 12.76 5.724 12.76 12.76-5.724 12.76-12.76 12.76z"/><path d="m146.073 272.218c0 4.142 3.358 7.5 7.5 7.5s7.5-3.358 7.5-7.5c0-21.428 17.432-38.86 38.86-38.86 18.613 0 34.665 13.258 38.167 31.524 1.647 8.597 9.175 14.836 17.9 14.836 8.724 0 16.252-6.239 17.9-14.835 3.502-18.266 19.554-31.525 38.167-31.525 21.427 0 38.859 17.432 38.859 38.86 0 4.142 3.358 7.5 7.5 7.5s7.5-3.358 7.5-7.5c0-29.698-24.161-53.86-53.859-53.86-25.797 0-48.044 18.379-52.898 43.7-.295 1.542-1.628 2.66-3.169 2.66s-2.873-1.118-3.168-2.66c-4.854-25.322-27.102-43.7-52.898-43.7-29.699 0-53.861 24.161-53.861 53.86z"/><path d="m171.432 200.618c.712 4.08 4.594 6.813 8.678 6.099 50.357-8.789 101.424-8.789 151.781 0 .437.076.87.113 1.298.113 3.577 0 6.744-2.568 7.379-6.212.712-4.081-2.018-7.966-6.099-8.678-52.069-9.088-104.871-9.088-156.939 0-4.08.712-6.81 4.598-6.098 8.678z"/><path d="m197.76 172.739c38.645-6.745 77.835-6.745 116.48 0 .437.076.87.113 1.298.113 3.577 0 6.744-2.568 7.379-6.212.712-4.081-2.018-7.966-6.099-8.678-40.357-7.044-81.281-7.044-121.638 0-4.081.712-6.811 4.597-6.099 8.678.713 4.081 4.594 6.809 8.679 6.099z"/><path d="m444.301 266.907c2.928 2.93 7.677 2.932 10.607.004s2.932-7.677.004-10.607c-14.477-14.488-37.863-14.901-55.602-.987-9.799 7.666-17.213 19.109-21.435 33.074l-1.908 6.287c-.019.062-.037.125-.054.188-6.271 20.495-12.504 37.788-25.077 42.098-3.276 1.134-6.993 1.439-11.356.933-13.738-1.6-25.351-.341-35.512 3.85-7.682 3.172-13.412 7.436-18.954 11.559-8.805 6.551-15.759 11.725-29.018 11.725-13.249 0-20.2-5.171-28.999-11.719-11.858-8.823-25.299-18.824-54.476-15.415-21.569 2.509-28.172-15.707-37.979-48.129l-.412-1.363c-6.586-21.766-21.29-37.462-39.333-41.985-13.938-3.492-28.031.202-37.708 9.884-2.928 2.93-2.927 7.679.003 10.606 2.929 2.928 7.678 2.927 10.606-.003 6.002-6.005 14.549-8.169 23.451-5.938 1.677.42 4.017 1.188 6.679 2.555-12.277 20.877-12.055 43.637-7.759 57.926 3.045 10.591 8.857 18.922 15.548 22.287 2.113 1.063 4.289 1.601 6.378 1.601 1.381 0 2.724-.235 3.987-.708.155-.058.308-.121.458-.189 7.431-3.363 9.868-12.229 12.796-23.494 2.174 5.226 4.603 10.065 7.486 14.34 4.338 6.433 9.495 11.117 15.416 14.075 4.072 18.199 13.603 35.709 25.925 47.424 9.518 9.238 20.387 14.637 29.352 14.636.397 0 .792-.01 1.182-.032 5.748-.315 8.99-2.843 10.697-4.908.102-.123.2-.25.293-.379 5.754-7.945 2.628-19.465-1.329-34.049-.706-2.601-1.444-5.331-2.167-8.154.648.478 1.297.961 1.952 1.448 9.251 6.883 19.736 14.684 37.953 14.684 18.226 0 28.716-7.805 37.971-14.69.651-.484 1.298-.965 1.943-1.44-.723 2.823-1.461 5.552-2.167 8.152-3.957 14.585-7.083 26.105-1.329 34.049.094.129.192.256.293.379 1.707 2.065 4.948 4.593 10.697 4.908.39.021.784.032 1.182.032 8.965 0 19.832-5.395 29.296-14.582 12.361-11.752 21.887-29.241 25.967-47.418 10.746-5.294 17.539-15.589 22.908-28.504 2.932 11.278 5.366 20.158 12.804 23.524.15.068.304.131.458.189 1.263.474 2.606.708 3.987.708 2.089 0 4.265-.538 6.378-1.601 6.69-3.365 12.502-11.697 15.522-22.201 4.321-14.373 4.544-37.132-7.731-58.007 10.623-5.5 22.355-4.402 30.126 3.377zm-329.4 49.565c-1.129 4.347-2.587 9.961-3.928 12.846-1.774-1.642-4.553-5.281-6.514-12.099-3.123-10.39-3.509-27.897 5.18-44.09 3.876 4.644 7.517 10.973 10.134 19.621l.412 1.361c.248.818.494 1.633.741 2.447-2.683 7.072-4.451 13.856-6.025 19.914zm88.88 59.509c1.864 6.868 4.592 16.922 3.959 20.457-2.728.15-10.318-1.767-19.285-10.47-8.713-8.283-15.741-20.095-19.777-32.847 1.814.002 3.673-.102 5.581-.324 10.382-1.212 18.02-.472 24.279 1.445 1.498 7.909 3.468 15.197 5.243 21.739zm119.709 10.04c-8.916 8.654-16.497 10.573-19.228 10.416-.633-3.54 2.094-13.591 3.957-20.457 1.771-6.528 3.736-13.8 5.234-21.692 6.932-2.118 14.758-2.602 24.295-1.492 1.905.221 3.761.317 5.576.316-4.037 12.758-11.075 24.582-19.834 32.909zm84.026-68.716c-1.942 6.755-4.716 10.377-6.488 12.014-1.341-2.885-2.8-8.499-3.929-12.847-1.574-6.06-3.343-12.844-6.025-19.918l1.155-3.806c2.323-7.683 5.778-14.314 10.154-19.579 8.666 16.181 8.277 33.672 5.133 44.136z"/></g></svg>