<svg height="681pt" viewBox="-21 -61 681.33466 681" width="681pt" xmlns="http://www.w3.org/2000/svg"><path d="m638.835938 156.816406c0-.039062-.011719-.078125-.011719-.121094-.003907-.53125-.039063-1.0625-.113281-1.597656 0-.007812 0-.015625 0-.023437-.070313-.507813-.179688-1.015625-.316407-1.515625-.023437-.09375-.046875-.1875-.070312-.273438-.027344-.078125-.039063-.160156-.066407-.238281-.125-.398437-.269531-.785156-.433593-1.164063-.03125-.078124-.070313-.15625-.105469-.234374-.429688-.949219-.964844-1.839844-1.597656-2.636719-.050782-.0625-.09375-.128907-.148438-.191407-.3125-.382812-.648437-.746093-1.007812-1.089843-.0625-.0625-.132813-.128907-.199219-.191407-.375-.339843-.761719-.664062-1.171875-.960937-.042969-.03125-.09375-.0625-.144531-.097656-.429688-.300781-.878907-.578125-1.339844-.828125-.015625-.003906-.03125-.011719-.039063-.023438-.003906 0-.007812 0-.015624-.003906-.46875-.246094-.953126-.453125-1.453126-.640625-.070312-.027344-.144531-.058594-.21875-.082031-.472656-.164063-.949218-.300782-1.441406-.410156-.09375-.019532-.183594-.039063-.277344-.058594-.492187-.097656-.984374-.175782-1.492187-.210938-.054687-.007812-.105469 0-.160156-.007812-.269531-.019532-.539063-.03125-.8125-.03125h-169.882813c.277344-3.535156.417969-7.105469.417969-10.714844 0-23.4375-6.0625-46.554688-17.527344-66.84375-3.433593-6.074219-11.140625-8.214844-17.214843-4.78125-6.078126 3.429688-8.214844 11.140625-4.785157 17.210938 9.332031 16.507812 14.257813 35.328124 14.257813 54.414062 0 61.089844-49.691406 110.78125-110.777344 110.78125-53.535156 0-98.3125-38.164062-108.574219-88.707031-.070312-.714844-.210937-1.394531-.398437-2.0625-1.1875-6.496094-1.8125-13.179688-1.8125-20.011719 0-61.082031 49.699218-110.777344 110.785156-110.777344 8.878906 0 17.714844 1.050782 26.261719 3.128906 6.777343 1.644532 13.609375-2.515624 15.257812-9.300781 1.648438-6.777343-2.515625-13.609375-9.292969-15.257812-10.496093-2.546875-21.339843-3.839844-32.226562-3.839844-75.019531 0-136.054688 61.035156-136.054688 136.054687 0 3.601563.148438 7.171876.421876 10.710938h-172.339844c-.28125 0-.558594.015625-.839844.035156-.039062 0-.082031 0-.125.003906-.511719.039063-1.007812.117188-1.507812.214844-.085938.011719-.171876.03125-.261719.050782-.492188.109374-.980469.246093-1.453125.414062-.070313.027344-.140625.050781-.207032.078125-.503906.1875-.992187.394531-1.457031.640625-.007812.003906-.011719.003906-.015625.007812-.015625.007813-.023437.015626-.039062.027344-.464844.242188-.910156.519532-1.34375.820313-.046875.035156-.097656.066406-.144532.097656-.40625.296875-.796874.621094-1.167968.964844-.066406.066406-.136719.125-.203125.1875-.355469.34375-.695313.710937-1.011719 1.09375-.046875.058593-.097656.125-.140625.1875-.632813.796875-1.167969 1.6875-1.597656 2.640625-.035157.078125-.074219.15625-.105469.234375-.164062.375-.308594.765625-.433594 1.164062-.027344.078125-.039062.15625-.066406.234375-.023438.09375-.046875.183594-.070312.277344-.136719.503906-.25 1.003906-.320313 1.511719 0 .007812 0 .015625-.003906.023437-.070313.535156-.1015628 1.066406-.105469 1.597656 0 .042969-.0117188.082032-.0117188.121094v386.011719c0 .042969.0078126.085937.0078126.132813.0039062.265624.0195312.527343.0429682.792968.007813.152344.015626.308594.035157.460938.023437.253906.066406.503906.109375.75.03125.160156.050781.332031.082031.492187.050781.21875.113281.433594.171875.652344.050781.1875.09375.375.152344.5625.058594.179687.128906.359375.199218.535156.078126.214844.152344.429688.242188.632813.0625.152344.140625.304687.214844.449218.113281.230469.21875.457032.339844.675782.078124.136718.164062.269531.246093.402344.136719.222656.277344.453124.421875.667968.03125.03125.050782.078125.074219.109375.054687.074219.117187.136719.171875.210938.203125.277343.417969.546875.648438.804687.109374.132813.226562.257813.34375.375.210937.222656.433593.4375.667968.648438.117188.105468.238282.222656.363282.332031.339843.28125.691406.550781 1.058593.796875.109375.070312.222657.132812.328125.199219.28125.175781.574219.351562.878906.507812.136719.074219.28125.136719.421876.207031.285156.132813.570312.261719.863281.375.140625.050782.28125.105469.429687.15625.304688.105469.617188.199219.941406.28125.128907.035157.265626.074219.398438.101563.339844.078125.6875.136719 1.03125.179687.125.019532.238281.042969.355469.058594.433593.042969.875.074219 1.324219.074219.027343 0 .054687.003906.085937.003906h613.464844c.121093 0 .238281-.015625.359375-.019531.242187-.003906.492187-.015625.734375-.035156.203125-.019532.394531-.042969.589843-.070313.207032-.023437.410157-.054687.609376-.09375.21875-.039062.433593-.085937.648437-.140625.179687-.039062.363281-.082031.535156-.136718.222657-.058594.433594-.132813.644531-.203126.175782-.058593.351563-.125.527344-.191406.199219-.082031.394532-.167968.589844-.253906.183594-.085938.363281-.171875.546875-.261719.171875-.09375.339844-.1875.511719-.285156.1875-.109375.378906-.222656.570312-.34375.144532-.097656.289063-.195313.433594-.296875.191406-.136719.378906-.28125.5625-.425781.140625-.105469.273438-.222657.40625-.335938.175781-.152343.34375-.300781.511719-.464843.140625-.132813.273437-.28125.410156-.421876.140625-.152343.28125-.300781.414063-.457031.15625-.179687.300781-.371093.441406-.5625.078125-.097656.160156-.1875.234375-.292969.03125-.039062.050781-.082031.078125-.121093.152344-.214844.289062-.4375.425781-.664063.082031-.128906.167969-.265625.242187-.402344.125-.21875.234376-.445312.339844-.671874.074219-.152344.15625-.296876.21875-.453126.09375-.210937.167969-.425781.246094-.632812.066406-.183594.140625-.359375.199219-.539062.058593-.1875.105469-.382813.15625-.578126.058593-.210937.117187-.417968.160156-.628906.039063-.171875.0625-.347656.09375-.523437.039063-.238281.082031-.476563.105469-.71875.019531-.160157.03125-.328125.039062-.492188.019532-.253906.035156-.507812.039063-.765625 0-.050781.003906-.097656.003906-.144531v-386.011719zm-613.484376 24.125 239.300782 165.769532c2.285156 1.582031 4.636718 3.046874 7.023437 4.40625-1.347656.753906-2.691406 1.535156-4.003906 2.351562-67.902344 42.410156-193.652344 130.589844-242.320313 164.9375zm255.707032 193.960938c23.644531-14.769532 54.191406-14.742188 77.808594.0625 61.988281 38.847656 172.949218 116.570312 227.671874 155.226562h-534.046874c54.953124-38.679687 166.390624-116.457031 228.566406-155.289062zm91.226562-21.351563c-1.503906-.945312-3.039062-1.832031-4.589844-2.683593 2.230469-1.292969 4.417969-2.671876 6.5625-4.15625l239.304688-165.769532v337.417969c-48.535156-34.378906-173.625-122.410156-241.277344-164.808594zm-51.597656-84.027343c62.566406 0 115.394531-42.457032 131.207031-100.074219h133.765625l-227.257812 156.90625c-11.503906 7.941406-24.972656 12.140625-38.945313 12.140625-13.976562 0-27.441406-4.199219-38.945312-12.140625l-227.261719-156.90625h136.222656c15.820313 57.617187 68.644532 100.074219 131.214844 100.074219zm0 0"/><path d="m61.730469 385.425781c6.972656 0 12.632812-5.660156 12.632812-12.632812v-83.421875c0-6.972656-5.660156-12.632813-12.632812-12.632813-6.980469 0-12.636719 5.660157-12.636719 12.632813v83.421875c0 6.972656 5.65625 12.632812 12.636719 12.632812zm0 0"/><path d="m66.863281 409.441406-.285156-.085937c-6.675781-2.015625-13.726563 1.761719-15.746094 8.445312-2.015625 6.675781 1.765625 13.730469 8.445313 15.742188l.289062.085937c1.214844.371094 2.445313.546875 3.65625.546875 5.421875 0 10.441406-3.527343 12.089844-8.992187 2.011719-6.679688-1.769531-13.726563-8.449219-15.742188zm0 0"/><path d="m314.527344 202.972656c2.457031 1.429688 5.4375 2.136719 8.933594 2.136719 3.363281 0 6.304687-.707031 8.828124-2.136719 2.527344-1.421875 3.789063-3.363281 3.789063-5.824218v-126.207032c0-2.328125-1.167969-4.269531-3.496094-5.824218-2.328125-1.550782-4.921875-2.328126-7.765625-2.328126-1.941406 0-3.691406.648438-5.242187 1.9375l-22.914063 17.476563c-3.234375 2.078125-4.851562 5.117187-4.851562 9.128906 0 2.589844.777344 4.921875 2.332031 6.988281 1.550781 2.070313 3.496094 3.109376 5.824219 3.109376 1.8125 0 3.363281-.585938 4.660156-1.75l6.214844-6.214844v103.683594c0 2.460937 1.226562 4.402343 3.6875 5.824218zm0 0"/><path d="m390.761719 48.367188.285156.082031c1.222656.371093 2.457031.550781 3.671875.550781 5.417969 0 10.433594-3.515625 12.082031-8.976562 2.023438-6.675782-1.746093-13.730469-8.425781-15.753907l-.285156-.085937c-6.671875-2.019532-13.734375 1.746094-15.757813 8.429687-2.019531 6.675781 1.75 13.730469 8.429688 15.753907zm0 0"/></svg>